<svg xmlns="http://www.w3.org/2000/svg" version="1.1" xmlns:xlink="http://www.w3.org/1999/xlink" width="512" height="512" x="0" y="0" viewBox="0 0 477.867 477.867" style="enable-background:new 0 0 512 512" xml:space="preserve" class=""><circle r="238.9335" cx="238.9335" cy="238.9335" fill="#FFFFFF" shape="circle"></circle><g transform="matrix(0.7,0,0,0.7,71.68004608154297,71.67991619110109)"><path d="M460.8 238.93H358.4a17.068 17.068 0 0 0-16.555 12.919l-28.45 113.783L272.947 15.1C271.858 5.737 263.386-.97 254.023.119a17.067 17.067 0 0 0-14.749 13.53L185.19 284.157l-32.188-117.982c-2.465-9.098-11.839-14.474-20.936-12.009a17.067 17.067 0 0 0-11.388 10.148L90.846 238.93H17.067C7.641 238.93 0 246.571 0 255.996s7.641 17.067 17.067 17.067H102.4a17.066 17.066 0 0 0 15.855-10.735l15.206-38.042 37.803 138.598a17.067 17.067 0 0 0 16.469 12.578h.58a17.067 17.067 0 0 0 16.145-13.653l47.002-235.093 38.792 336.026a17.066 17.066 0 0 0 15.838 15.087l1.109.034a17.066 17.066 0 0 0 16.538-12.937l47.992-191.863H460.8c9.426 0 17.067-7.641 17.067-17.067s-7.641-17.066-17.067-17.066z" fill="#000000" opacity="1" data-original="#000000"></path></g></svg>